<mxfile host="app.diagrams.net" modified="2023-06-13T12:47:17.870Z" agent="Mozilla/5.0 (Windows NT 10.0; Win64; x64) AppleWebKit/537.36 (KHTML, like Gecko) Chrome/114.0.0.0 Safari/537.36" etag="0FQ2qj4IfbKo0lfDCneM" version="21.3.8" type="device">
  <diagram name="페이지-1" id="X873KRTPx-yp5Rnwmtki">
    <mxGraphModel dx="1235" dy="646" grid="1" gridSize="10" guides="1" tooltips="1" connect="1" arrows="1" fold="1" page="1" pageScale="1" pageWidth="827" pageHeight="1169" math="0" shadow="0">
      <root>
        <mxCell id="0" />
        <mxCell id="1" parent="0" />
        <mxCell id="PyDRByAI_ssvU1MrfMtV-372" value="" style="rounded=0;whiteSpace=wrap;html=1;" vertex="1" parent="1">
          <mxGeometry x="43" y="560" width="746" height="60" as="geometry" />
        </mxCell>
        <mxCell id="PyDRByAI_ssvU1MrfMtV-162" value="" style="rounded=0;whiteSpace=wrap;html=1;" vertex="1" parent="1">
          <mxGeometry x="29" y="330" width="390" height="60" as="geometry" />
        </mxCell>
        <mxCell id="PyDRByAI_ssvU1MrfMtV-2" value="j" style="rounded=0;whiteSpace=wrap;html=1;fillColor=#dae8fc;strokeColor=#6c8ebf;" vertex="1" parent="1">
          <mxGeometry x="49" y="100" width="40" height="40" as="geometry" />
        </mxCell>
        <mxCell id="PyDRByAI_ssvU1MrfMtV-3" value="a" style="rounded=0;whiteSpace=wrap;html=1;fillColor=#dae8fc;strokeColor=#6c8ebf;" vertex="1" parent="1">
          <mxGeometry x="89" y="100" width="40" height="40" as="geometry" />
        </mxCell>
        <mxCell id="PyDRByAI_ssvU1MrfMtV-4" value="s" style="rounded=0;whiteSpace=wrap;html=1;fillColor=#dae8fc;strokeColor=#6c8ebf;" vertex="1" parent="1">
          <mxGeometry x="129" y="100" width="40" height="40" as="geometry" />
        </mxCell>
        <mxCell id="PyDRByAI_ssvU1MrfMtV-6" value="o" style="rounded=0;whiteSpace=wrap;html=1;fillColor=#dae8fc;strokeColor=#6c8ebf;" vertex="1" parent="1">
          <mxGeometry x="169" y="100" width="40" height="40" as="geometry" />
        </mxCell>
        <mxCell id="PyDRByAI_ssvU1MrfMtV-7" value="" style="rounded=0;whiteSpace=wrap;html=1;" vertex="1" parent="1">
          <mxGeometry x="209" y="100" width="40" height="40" as="geometry" />
        </mxCell>
        <mxCell id="PyDRByAI_ssvU1MrfMtV-8" value="" style="rounded=0;whiteSpace=wrap;html=1;" vertex="1" parent="1">
          <mxGeometry x="49" y="140" width="40" height="40" as="geometry" />
        </mxCell>
        <mxCell id="PyDRByAI_ssvU1MrfMtV-9" value="" style="rounded=0;whiteSpace=wrap;html=1;" vertex="1" parent="1">
          <mxGeometry x="89" y="140" width="40" height="40" as="geometry" />
        </mxCell>
        <mxCell id="PyDRByAI_ssvU1MrfMtV-10" value="" style="rounded=0;whiteSpace=wrap;html=1;" vertex="1" parent="1">
          <mxGeometry x="129" y="140" width="40" height="40" as="geometry" />
        </mxCell>
        <mxCell id="PyDRByAI_ssvU1MrfMtV-11" value="" style="rounded=0;whiteSpace=wrap;html=1;" vertex="1" parent="1">
          <mxGeometry x="169" y="140" width="40" height="40" as="geometry" />
        </mxCell>
        <mxCell id="PyDRByAI_ssvU1MrfMtV-12" value="" style="rounded=0;whiteSpace=wrap;html=1;" vertex="1" parent="1">
          <mxGeometry x="209" y="140" width="40" height="40" as="geometry" />
        </mxCell>
        <mxCell id="PyDRByAI_ssvU1MrfMtV-13" value="" style="rounded=0;whiteSpace=wrap;html=1;" vertex="1" parent="1">
          <mxGeometry x="49" y="180" width="40" height="40" as="geometry" />
        </mxCell>
        <mxCell id="PyDRByAI_ssvU1MrfMtV-14" value="" style="rounded=0;whiteSpace=wrap;html=1;" vertex="1" parent="1">
          <mxGeometry x="89" y="180" width="40" height="40" as="geometry" />
        </mxCell>
        <mxCell id="PyDRByAI_ssvU1MrfMtV-15" value="" style="rounded=0;whiteSpace=wrap;html=1;" vertex="1" parent="1">
          <mxGeometry x="129" y="180" width="40" height="40" as="geometry" />
        </mxCell>
        <mxCell id="PyDRByAI_ssvU1MrfMtV-16" value="" style="rounded=0;whiteSpace=wrap;html=1;" vertex="1" parent="1">
          <mxGeometry x="169" y="180" width="40" height="40" as="geometry" />
        </mxCell>
        <mxCell id="PyDRByAI_ssvU1MrfMtV-17" value="" style="rounded=0;whiteSpace=wrap;html=1;" vertex="1" parent="1">
          <mxGeometry x="209" y="180" width="40" height="40" as="geometry" />
        </mxCell>
        <mxCell id="PyDRByAI_ssvU1MrfMtV-18" value="" style="rounded=0;whiteSpace=wrap;html=1;" vertex="1" parent="1">
          <mxGeometry x="49" y="220" width="40" height="40" as="geometry" />
        </mxCell>
        <mxCell id="PyDRByAI_ssvU1MrfMtV-19" value="" style="rounded=0;whiteSpace=wrap;html=1;" vertex="1" parent="1">
          <mxGeometry x="89" y="220" width="40" height="40" as="geometry" />
        </mxCell>
        <mxCell id="PyDRByAI_ssvU1MrfMtV-20" value="" style="rounded=0;whiteSpace=wrap;html=1;" vertex="1" parent="1">
          <mxGeometry x="129" y="220" width="40" height="40" as="geometry" />
        </mxCell>
        <mxCell id="PyDRByAI_ssvU1MrfMtV-21" value="" style="rounded=0;whiteSpace=wrap;html=1;" vertex="1" parent="1">
          <mxGeometry x="169" y="220" width="40" height="40" as="geometry" />
        </mxCell>
        <mxCell id="PyDRByAI_ssvU1MrfMtV-22" value="" style="rounded=0;whiteSpace=wrap;html=1;" vertex="1" parent="1">
          <mxGeometry x="209" y="220" width="40" height="40" as="geometry" />
        </mxCell>
        <mxCell id="PyDRByAI_ssvU1MrfMtV-23" value="문장을 쓰거나 읽고싶다&lt;br&gt;=&amp;gt; 문장에 대한 변수를 선언해야함&lt;br&gt;&lt;br&gt;문장이 아직 정해지지는 않았으나,&amp;nbsp;&lt;br&gt;어떤 문장을 쓰거나 읽으려면&amp;nbsp;&lt;br&gt;컴퓨터의 메모리의 일부 공간을 해당 용도로 확보해야함" style="text;html=1;strokeColor=none;fillColor=none;align=center;verticalAlign=middle;whiteSpace=wrap;rounded=0;" vertex="1" parent="1">
          <mxGeometry x="289" y="70" width="210" height="130" as="geometry" />
        </mxCell>
        <mxCell id="PyDRByAI_ssvU1MrfMtV-25" value="" style="rounded=0;whiteSpace=wrap;html=1;" vertex="1" parent="1">
          <mxGeometry x="49" y="340" width="10" height="40" as="geometry" />
        </mxCell>
        <mxCell id="PyDRByAI_ssvU1MrfMtV-27" value="" style="rounded=0;whiteSpace=wrap;html=1;" vertex="1" parent="1">
          <mxGeometry x="59" y="340" width="10" height="40" as="geometry" />
        </mxCell>
        <mxCell id="PyDRByAI_ssvU1MrfMtV-28" value="" style="rounded=0;whiteSpace=wrap;html=1;" vertex="1" parent="1">
          <mxGeometry x="69" y="340" width="10" height="40" as="geometry" />
        </mxCell>
        <mxCell id="PyDRByAI_ssvU1MrfMtV-29" value="" style="rounded=0;whiteSpace=wrap;html=1;" vertex="1" parent="1">
          <mxGeometry x="79" y="340" width="10" height="40" as="geometry" />
        </mxCell>
        <mxCell id="PyDRByAI_ssvU1MrfMtV-30" value="" style="rounded=0;whiteSpace=wrap;html=1;" vertex="1" parent="1">
          <mxGeometry x="89" y="340" width="10" height="40" as="geometry" />
        </mxCell>
        <mxCell id="PyDRByAI_ssvU1MrfMtV-31" value="" style="rounded=0;whiteSpace=wrap;html=1;" vertex="1" parent="1">
          <mxGeometry x="99" y="340" width="10" height="40" as="geometry" />
        </mxCell>
        <mxCell id="PyDRByAI_ssvU1MrfMtV-32" value="" style="rounded=0;whiteSpace=wrap;html=1;" vertex="1" parent="1">
          <mxGeometry x="109" y="340" width="10" height="40" as="geometry" />
        </mxCell>
        <mxCell id="PyDRByAI_ssvU1MrfMtV-33" value="" style="rounded=0;whiteSpace=wrap;html=1;" vertex="1" parent="1">
          <mxGeometry x="119" y="340" width="10" height="40" as="geometry" />
        </mxCell>
        <mxCell id="PyDRByAI_ssvU1MrfMtV-34" value="" style="rounded=0;whiteSpace=wrap;html=1;" vertex="1" parent="1">
          <mxGeometry x="139" y="340" width="10" height="40" as="geometry" />
        </mxCell>
        <mxCell id="PyDRByAI_ssvU1MrfMtV-35" value="" style="rounded=0;whiteSpace=wrap;html=1;" vertex="1" parent="1">
          <mxGeometry x="149" y="340" width="10" height="40" as="geometry" />
        </mxCell>
        <mxCell id="PyDRByAI_ssvU1MrfMtV-36" value="" style="rounded=0;whiteSpace=wrap;html=1;" vertex="1" parent="1">
          <mxGeometry x="159" y="340" width="10" height="40" as="geometry" />
        </mxCell>
        <mxCell id="PyDRByAI_ssvU1MrfMtV-37" value="" style="rounded=0;whiteSpace=wrap;html=1;" vertex="1" parent="1">
          <mxGeometry x="169" y="340" width="10" height="40" as="geometry" />
        </mxCell>
        <mxCell id="PyDRByAI_ssvU1MrfMtV-38" value="" style="rounded=0;whiteSpace=wrap;html=1;" vertex="1" parent="1">
          <mxGeometry x="179" y="340" width="10" height="40" as="geometry" />
        </mxCell>
        <mxCell id="PyDRByAI_ssvU1MrfMtV-39" value="" style="rounded=0;whiteSpace=wrap;html=1;" vertex="1" parent="1">
          <mxGeometry x="189" y="340" width="10" height="40" as="geometry" />
        </mxCell>
        <mxCell id="PyDRByAI_ssvU1MrfMtV-40" value="" style="rounded=0;whiteSpace=wrap;html=1;" vertex="1" parent="1">
          <mxGeometry x="199" y="340" width="10" height="40" as="geometry" />
        </mxCell>
        <mxCell id="PyDRByAI_ssvU1MrfMtV-41" value="" style="rounded=0;whiteSpace=wrap;html=1;" vertex="1" parent="1">
          <mxGeometry x="209" y="340" width="10" height="40" as="geometry" />
        </mxCell>
        <mxCell id="PyDRByAI_ssvU1MrfMtV-50" value="" style="rounded=0;whiteSpace=wrap;html=1;" vertex="1" parent="1">
          <mxGeometry x="229" y="340" width="10" height="40" as="geometry" />
        </mxCell>
        <mxCell id="PyDRByAI_ssvU1MrfMtV-51" value="" style="rounded=0;whiteSpace=wrap;html=1;" vertex="1" parent="1">
          <mxGeometry x="239" y="340" width="10" height="40" as="geometry" />
        </mxCell>
        <mxCell id="PyDRByAI_ssvU1MrfMtV-52" value="" style="rounded=0;whiteSpace=wrap;html=1;" vertex="1" parent="1">
          <mxGeometry x="249" y="340" width="10" height="40" as="geometry" />
        </mxCell>
        <mxCell id="PyDRByAI_ssvU1MrfMtV-53" value="" style="rounded=0;whiteSpace=wrap;html=1;" vertex="1" parent="1">
          <mxGeometry x="259" y="340" width="10" height="40" as="geometry" />
        </mxCell>
        <mxCell id="PyDRByAI_ssvU1MrfMtV-54" value="" style="rounded=0;whiteSpace=wrap;html=1;" vertex="1" parent="1">
          <mxGeometry x="269" y="340" width="10" height="40" as="geometry" />
        </mxCell>
        <mxCell id="PyDRByAI_ssvU1MrfMtV-55" value="" style="rounded=0;whiteSpace=wrap;html=1;" vertex="1" parent="1">
          <mxGeometry x="279" y="340" width="10" height="40" as="geometry" />
        </mxCell>
        <mxCell id="PyDRByAI_ssvU1MrfMtV-56" value="" style="rounded=0;whiteSpace=wrap;html=1;" vertex="1" parent="1">
          <mxGeometry x="289" y="340" width="10" height="40" as="geometry" />
        </mxCell>
        <mxCell id="PyDRByAI_ssvU1MrfMtV-57" value="" style="rounded=0;whiteSpace=wrap;html=1;" vertex="1" parent="1">
          <mxGeometry x="299" y="340" width="10" height="40" as="geometry" />
        </mxCell>
        <mxCell id="PyDRByAI_ssvU1MrfMtV-58" value="" style="rounded=0;whiteSpace=wrap;html=1;" vertex="1" parent="1">
          <mxGeometry x="319" y="340" width="10" height="40" as="geometry" />
        </mxCell>
        <mxCell id="PyDRByAI_ssvU1MrfMtV-59" value="" style="rounded=0;whiteSpace=wrap;html=1;" vertex="1" parent="1">
          <mxGeometry x="329" y="340" width="10" height="40" as="geometry" />
        </mxCell>
        <mxCell id="PyDRByAI_ssvU1MrfMtV-60" value="" style="rounded=0;whiteSpace=wrap;html=1;" vertex="1" parent="1">
          <mxGeometry x="339" y="340" width="10" height="40" as="geometry" />
        </mxCell>
        <mxCell id="PyDRByAI_ssvU1MrfMtV-61" value="" style="rounded=0;whiteSpace=wrap;html=1;" vertex="1" parent="1">
          <mxGeometry x="349" y="340" width="10" height="40" as="geometry" />
        </mxCell>
        <mxCell id="PyDRByAI_ssvU1MrfMtV-62" value="" style="rounded=0;whiteSpace=wrap;html=1;" vertex="1" parent="1">
          <mxGeometry x="359" y="340" width="10" height="40" as="geometry" />
        </mxCell>
        <mxCell id="PyDRByAI_ssvU1MrfMtV-63" value="" style="rounded=0;whiteSpace=wrap;html=1;fillColor=#dae8fc;strokeColor=#6c8ebf;" vertex="1" parent="1">
          <mxGeometry x="369" y="340" width="10" height="40" as="geometry" />
        </mxCell>
        <mxCell id="PyDRByAI_ssvU1MrfMtV-64" value="" style="rounded=0;whiteSpace=wrap;html=1;" vertex="1" parent="1">
          <mxGeometry x="379" y="340" width="10" height="40" as="geometry" />
        </mxCell>
        <mxCell id="PyDRByAI_ssvU1MrfMtV-65" value="" style="rounded=0;whiteSpace=wrap;html=1;fillColor=#dae8fc;strokeColor=#6c8ebf;" vertex="1" parent="1">
          <mxGeometry x="389" y="340" width="10" height="40" as="geometry" />
        </mxCell>
        <mxCell id="PyDRByAI_ssvU1MrfMtV-66" value="" style="rounded=0;whiteSpace=wrap;html=1;" vertex="1" parent="1">
          <mxGeometry x="49" y="390" width="10" height="40" as="geometry" />
        </mxCell>
        <mxCell id="PyDRByAI_ssvU1MrfMtV-67" value="" style="rounded=0;whiteSpace=wrap;html=1;" vertex="1" parent="1">
          <mxGeometry x="59" y="390" width="10" height="40" as="geometry" />
        </mxCell>
        <mxCell id="PyDRByAI_ssvU1MrfMtV-68" value="" style="rounded=0;whiteSpace=wrap;html=1;" vertex="1" parent="1">
          <mxGeometry x="69" y="390" width="10" height="40" as="geometry" />
        </mxCell>
        <mxCell id="PyDRByAI_ssvU1MrfMtV-69" value="" style="rounded=0;whiteSpace=wrap;html=1;" vertex="1" parent="1">
          <mxGeometry x="79" y="390" width="10" height="40" as="geometry" />
        </mxCell>
        <mxCell id="PyDRByAI_ssvU1MrfMtV-70" value="" style="rounded=0;whiteSpace=wrap;html=1;" vertex="1" parent="1">
          <mxGeometry x="89" y="390" width="10" height="40" as="geometry" />
        </mxCell>
        <mxCell id="PyDRByAI_ssvU1MrfMtV-71" value="" style="rounded=0;whiteSpace=wrap;html=1;" vertex="1" parent="1">
          <mxGeometry x="99" y="390" width="10" height="40" as="geometry" />
        </mxCell>
        <mxCell id="PyDRByAI_ssvU1MrfMtV-72" value="" style="rounded=0;whiteSpace=wrap;html=1;" vertex="1" parent="1">
          <mxGeometry x="109" y="390" width="10" height="40" as="geometry" />
        </mxCell>
        <mxCell id="PyDRByAI_ssvU1MrfMtV-73" value="" style="rounded=0;whiteSpace=wrap;html=1;" vertex="1" parent="1">
          <mxGeometry x="119" y="390" width="10" height="40" as="geometry" />
        </mxCell>
        <mxCell id="PyDRByAI_ssvU1MrfMtV-74" value="" style="rounded=0;whiteSpace=wrap;html=1;" vertex="1" parent="1">
          <mxGeometry x="139" y="390" width="10" height="40" as="geometry" />
        </mxCell>
        <mxCell id="PyDRByAI_ssvU1MrfMtV-75" value="" style="rounded=0;whiteSpace=wrap;html=1;" vertex="1" parent="1">
          <mxGeometry x="149" y="390" width="10" height="40" as="geometry" />
        </mxCell>
        <mxCell id="PyDRByAI_ssvU1MrfMtV-76" value="" style="rounded=0;whiteSpace=wrap;html=1;" vertex="1" parent="1">
          <mxGeometry x="159" y="390" width="10" height="40" as="geometry" />
        </mxCell>
        <mxCell id="PyDRByAI_ssvU1MrfMtV-77" value="" style="rounded=0;whiteSpace=wrap;html=1;" vertex="1" parent="1">
          <mxGeometry x="169" y="390" width="10" height="40" as="geometry" />
        </mxCell>
        <mxCell id="PyDRByAI_ssvU1MrfMtV-78" value="" style="rounded=0;whiteSpace=wrap;html=1;" vertex="1" parent="1">
          <mxGeometry x="179" y="390" width="10" height="40" as="geometry" />
        </mxCell>
        <mxCell id="PyDRByAI_ssvU1MrfMtV-79" value="" style="rounded=0;whiteSpace=wrap;html=1;" vertex="1" parent="1">
          <mxGeometry x="189" y="390" width="10" height="40" as="geometry" />
        </mxCell>
        <mxCell id="PyDRByAI_ssvU1MrfMtV-80" value="" style="rounded=0;whiteSpace=wrap;html=1;" vertex="1" parent="1">
          <mxGeometry x="199" y="390" width="10" height="40" as="geometry" />
        </mxCell>
        <mxCell id="PyDRByAI_ssvU1MrfMtV-81" value="" style="rounded=0;whiteSpace=wrap;html=1;" vertex="1" parent="1">
          <mxGeometry x="209" y="390" width="10" height="40" as="geometry" />
        </mxCell>
        <mxCell id="PyDRByAI_ssvU1MrfMtV-82" value="" style="rounded=0;whiteSpace=wrap;html=1;" vertex="1" parent="1">
          <mxGeometry x="229" y="390" width="10" height="40" as="geometry" />
        </mxCell>
        <mxCell id="PyDRByAI_ssvU1MrfMtV-83" value="" style="rounded=0;whiteSpace=wrap;html=1;" vertex="1" parent="1">
          <mxGeometry x="239" y="390" width="10" height="40" as="geometry" />
        </mxCell>
        <mxCell id="PyDRByAI_ssvU1MrfMtV-84" value="" style="rounded=0;whiteSpace=wrap;html=1;" vertex="1" parent="1">
          <mxGeometry x="249" y="390" width="10" height="40" as="geometry" />
        </mxCell>
        <mxCell id="PyDRByAI_ssvU1MrfMtV-85" value="" style="rounded=0;whiteSpace=wrap;html=1;" vertex="1" parent="1">
          <mxGeometry x="259" y="390" width="10" height="40" as="geometry" />
        </mxCell>
        <mxCell id="PyDRByAI_ssvU1MrfMtV-86" value="" style="rounded=0;whiteSpace=wrap;html=1;" vertex="1" parent="1">
          <mxGeometry x="269" y="390" width="10" height="40" as="geometry" />
        </mxCell>
        <mxCell id="PyDRByAI_ssvU1MrfMtV-87" value="" style="rounded=0;whiteSpace=wrap;html=1;" vertex="1" parent="1">
          <mxGeometry x="279" y="390" width="10" height="40" as="geometry" />
        </mxCell>
        <mxCell id="PyDRByAI_ssvU1MrfMtV-88" value="" style="rounded=0;whiteSpace=wrap;html=1;" vertex="1" parent="1">
          <mxGeometry x="289" y="390" width="10" height="40" as="geometry" />
        </mxCell>
        <mxCell id="PyDRByAI_ssvU1MrfMtV-89" value="" style="rounded=0;whiteSpace=wrap;html=1;" vertex="1" parent="1">
          <mxGeometry x="299" y="390" width="10" height="40" as="geometry" />
        </mxCell>
        <mxCell id="PyDRByAI_ssvU1MrfMtV-90" value="" style="rounded=0;whiteSpace=wrap;html=1;" vertex="1" parent="1">
          <mxGeometry x="319" y="390" width="10" height="40" as="geometry" />
        </mxCell>
        <mxCell id="PyDRByAI_ssvU1MrfMtV-91" value="" style="rounded=0;whiteSpace=wrap;html=1;" vertex="1" parent="1">
          <mxGeometry x="329" y="390" width="10" height="40" as="geometry" />
        </mxCell>
        <mxCell id="PyDRByAI_ssvU1MrfMtV-92" value="" style="rounded=0;whiteSpace=wrap;html=1;" vertex="1" parent="1">
          <mxGeometry x="339" y="390" width="10" height="40" as="geometry" />
        </mxCell>
        <mxCell id="PyDRByAI_ssvU1MrfMtV-93" value="" style="rounded=0;whiteSpace=wrap;html=1;" vertex="1" parent="1">
          <mxGeometry x="349" y="390" width="10" height="40" as="geometry" />
        </mxCell>
        <mxCell id="PyDRByAI_ssvU1MrfMtV-94" value="" style="rounded=0;whiteSpace=wrap;html=1;" vertex="1" parent="1">
          <mxGeometry x="359" y="390" width="10" height="40" as="geometry" />
        </mxCell>
        <mxCell id="PyDRByAI_ssvU1MrfMtV-95" value="" style="rounded=0;whiteSpace=wrap;html=1;" vertex="1" parent="1">
          <mxGeometry x="369" y="390" width="10" height="40" as="geometry" />
        </mxCell>
        <mxCell id="PyDRByAI_ssvU1MrfMtV-96" value="" style="rounded=0;whiteSpace=wrap;html=1;" vertex="1" parent="1">
          <mxGeometry x="379" y="390" width="10" height="40" as="geometry" />
        </mxCell>
        <mxCell id="PyDRByAI_ssvU1MrfMtV-97" value="" style="rounded=0;whiteSpace=wrap;html=1;" vertex="1" parent="1">
          <mxGeometry x="389" y="390" width="10" height="40" as="geometry" />
        </mxCell>
        <mxCell id="PyDRByAI_ssvU1MrfMtV-98" value="" style="rounded=0;whiteSpace=wrap;html=1;" vertex="1" parent="1">
          <mxGeometry x="49" y="440" width="10" height="40" as="geometry" />
        </mxCell>
        <mxCell id="PyDRByAI_ssvU1MrfMtV-99" value="" style="rounded=0;whiteSpace=wrap;html=1;" vertex="1" parent="1">
          <mxGeometry x="59" y="440" width="10" height="40" as="geometry" />
        </mxCell>
        <mxCell id="PyDRByAI_ssvU1MrfMtV-100" value="" style="rounded=0;whiteSpace=wrap;html=1;" vertex="1" parent="1">
          <mxGeometry x="69" y="440" width="10" height="40" as="geometry" />
        </mxCell>
        <mxCell id="PyDRByAI_ssvU1MrfMtV-101" value="" style="rounded=0;whiteSpace=wrap;html=1;" vertex="1" parent="1">
          <mxGeometry x="79" y="440" width="10" height="40" as="geometry" />
        </mxCell>
        <mxCell id="PyDRByAI_ssvU1MrfMtV-102" value="" style="rounded=0;whiteSpace=wrap;html=1;" vertex="1" parent="1">
          <mxGeometry x="89" y="440" width="10" height="40" as="geometry" />
        </mxCell>
        <mxCell id="PyDRByAI_ssvU1MrfMtV-103" value="" style="rounded=0;whiteSpace=wrap;html=1;" vertex="1" parent="1">
          <mxGeometry x="99" y="440" width="10" height="40" as="geometry" />
        </mxCell>
        <mxCell id="PyDRByAI_ssvU1MrfMtV-104" value="" style="rounded=0;whiteSpace=wrap;html=1;" vertex="1" parent="1">
          <mxGeometry x="109" y="440" width="10" height="40" as="geometry" />
        </mxCell>
        <mxCell id="PyDRByAI_ssvU1MrfMtV-105" value="" style="rounded=0;whiteSpace=wrap;html=1;" vertex="1" parent="1">
          <mxGeometry x="119" y="440" width="10" height="40" as="geometry" />
        </mxCell>
        <mxCell id="PyDRByAI_ssvU1MrfMtV-106" value="" style="rounded=0;whiteSpace=wrap;html=1;" vertex="1" parent="1">
          <mxGeometry x="139" y="440" width="10" height="40" as="geometry" />
        </mxCell>
        <mxCell id="PyDRByAI_ssvU1MrfMtV-107" value="" style="rounded=0;whiteSpace=wrap;html=1;" vertex="1" parent="1">
          <mxGeometry x="149" y="440" width="10" height="40" as="geometry" />
        </mxCell>
        <mxCell id="PyDRByAI_ssvU1MrfMtV-108" value="" style="rounded=0;whiteSpace=wrap;html=1;" vertex="1" parent="1">
          <mxGeometry x="159" y="440" width="10" height="40" as="geometry" />
        </mxCell>
        <mxCell id="PyDRByAI_ssvU1MrfMtV-109" value="" style="rounded=0;whiteSpace=wrap;html=1;" vertex="1" parent="1">
          <mxGeometry x="169" y="440" width="10" height="40" as="geometry" />
        </mxCell>
        <mxCell id="PyDRByAI_ssvU1MrfMtV-110" value="" style="rounded=0;whiteSpace=wrap;html=1;" vertex="1" parent="1">
          <mxGeometry x="179" y="440" width="10" height="40" as="geometry" />
        </mxCell>
        <mxCell id="PyDRByAI_ssvU1MrfMtV-111" value="" style="rounded=0;whiteSpace=wrap;html=1;" vertex="1" parent="1">
          <mxGeometry x="189" y="440" width="10" height="40" as="geometry" />
        </mxCell>
        <mxCell id="PyDRByAI_ssvU1MrfMtV-112" value="" style="rounded=0;whiteSpace=wrap;html=1;" vertex="1" parent="1">
          <mxGeometry x="199" y="440" width="10" height="40" as="geometry" />
        </mxCell>
        <mxCell id="PyDRByAI_ssvU1MrfMtV-113" value="" style="rounded=0;whiteSpace=wrap;html=1;" vertex="1" parent="1">
          <mxGeometry x="209" y="440" width="10" height="40" as="geometry" />
        </mxCell>
        <mxCell id="PyDRByAI_ssvU1MrfMtV-114" value="" style="rounded=0;whiteSpace=wrap;html=1;" vertex="1" parent="1">
          <mxGeometry x="229" y="440" width="10" height="40" as="geometry" />
        </mxCell>
        <mxCell id="PyDRByAI_ssvU1MrfMtV-115" value="" style="rounded=0;whiteSpace=wrap;html=1;" vertex="1" parent="1">
          <mxGeometry x="239" y="440" width="10" height="40" as="geometry" />
        </mxCell>
        <mxCell id="PyDRByAI_ssvU1MrfMtV-116" value="" style="rounded=0;whiteSpace=wrap;html=1;" vertex="1" parent="1">
          <mxGeometry x="249" y="440" width="10" height="40" as="geometry" />
        </mxCell>
        <mxCell id="PyDRByAI_ssvU1MrfMtV-117" value="" style="rounded=0;whiteSpace=wrap;html=1;" vertex="1" parent="1">
          <mxGeometry x="259" y="440" width="10" height="40" as="geometry" />
        </mxCell>
        <mxCell id="PyDRByAI_ssvU1MrfMtV-118" value="" style="rounded=0;whiteSpace=wrap;html=1;" vertex="1" parent="1">
          <mxGeometry x="269" y="440" width="10" height="40" as="geometry" />
        </mxCell>
        <mxCell id="PyDRByAI_ssvU1MrfMtV-119" value="" style="rounded=0;whiteSpace=wrap;html=1;" vertex="1" parent="1">
          <mxGeometry x="279" y="440" width="10" height="40" as="geometry" />
        </mxCell>
        <mxCell id="PyDRByAI_ssvU1MrfMtV-120" value="" style="rounded=0;whiteSpace=wrap;html=1;" vertex="1" parent="1">
          <mxGeometry x="289" y="440" width="10" height="40" as="geometry" />
        </mxCell>
        <mxCell id="PyDRByAI_ssvU1MrfMtV-121" value="" style="rounded=0;whiteSpace=wrap;html=1;" vertex="1" parent="1">
          <mxGeometry x="299" y="440" width="10" height="40" as="geometry" />
        </mxCell>
        <mxCell id="PyDRByAI_ssvU1MrfMtV-122" value="" style="rounded=0;whiteSpace=wrap;html=1;" vertex="1" parent="1">
          <mxGeometry x="319" y="440" width="10" height="40" as="geometry" />
        </mxCell>
        <mxCell id="PyDRByAI_ssvU1MrfMtV-123" value="" style="rounded=0;whiteSpace=wrap;html=1;" vertex="1" parent="1">
          <mxGeometry x="329" y="440" width="10" height="40" as="geometry" />
        </mxCell>
        <mxCell id="PyDRByAI_ssvU1MrfMtV-124" value="" style="rounded=0;whiteSpace=wrap;html=1;" vertex="1" parent="1">
          <mxGeometry x="339" y="440" width="10" height="40" as="geometry" />
        </mxCell>
        <mxCell id="PyDRByAI_ssvU1MrfMtV-125" value="" style="rounded=0;whiteSpace=wrap;html=1;" vertex="1" parent="1">
          <mxGeometry x="349" y="440" width="10" height="40" as="geometry" />
        </mxCell>
        <mxCell id="PyDRByAI_ssvU1MrfMtV-126" value="" style="rounded=0;whiteSpace=wrap;html=1;" vertex="1" parent="1">
          <mxGeometry x="359" y="440" width="10" height="40" as="geometry" />
        </mxCell>
        <mxCell id="PyDRByAI_ssvU1MrfMtV-127" value="" style="rounded=0;whiteSpace=wrap;html=1;" vertex="1" parent="1">
          <mxGeometry x="369" y="440" width="10" height="40" as="geometry" />
        </mxCell>
        <mxCell id="PyDRByAI_ssvU1MrfMtV-128" value="" style="rounded=0;whiteSpace=wrap;html=1;" vertex="1" parent="1">
          <mxGeometry x="379" y="440" width="10" height="40" as="geometry" />
        </mxCell>
        <mxCell id="PyDRByAI_ssvU1MrfMtV-129" value="" style="rounded=0;whiteSpace=wrap;html=1;" vertex="1" parent="1">
          <mxGeometry x="389" y="440" width="10" height="40" as="geometry" />
        </mxCell>
        <mxCell id="PyDRByAI_ssvU1MrfMtV-130" value="" style="rounded=0;whiteSpace=wrap;html=1;" vertex="1" parent="1">
          <mxGeometry x="49" y="490" width="10" height="40" as="geometry" />
        </mxCell>
        <mxCell id="PyDRByAI_ssvU1MrfMtV-131" value="" style="rounded=0;whiteSpace=wrap;html=1;" vertex="1" parent="1">
          <mxGeometry x="59" y="490" width="10" height="40" as="geometry" />
        </mxCell>
        <mxCell id="PyDRByAI_ssvU1MrfMtV-132" value="" style="rounded=0;whiteSpace=wrap;html=1;" vertex="1" parent="1">
          <mxGeometry x="69" y="490" width="10" height="40" as="geometry" />
        </mxCell>
        <mxCell id="PyDRByAI_ssvU1MrfMtV-133" value="" style="rounded=0;whiteSpace=wrap;html=1;" vertex="1" parent="1">
          <mxGeometry x="79" y="490" width="10" height="40" as="geometry" />
        </mxCell>
        <mxCell id="PyDRByAI_ssvU1MrfMtV-134" value="" style="rounded=0;whiteSpace=wrap;html=1;" vertex="1" parent="1">
          <mxGeometry x="89" y="490" width="10" height="40" as="geometry" />
        </mxCell>
        <mxCell id="PyDRByAI_ssvU1MrfMtV-135" value="" style="rounded=0;whiteSpace=wrap;html=1;" vertex="1" parent="1">
          <mxGeometry x="99" y="490" width="10" height="40" as="geometry" />
        </mxCell>
        <mxCell id="PyDRByAI_ssvU1MrfMtV-136" value="" style="rounded=0;whiteSpace=wrap;html=1;" vertex="1" parent="1">
          <mxGeometry x="109" y="490" width="10" height="40" as="geometry" />
        </mxCell>
        <mxCell id="PyDRByAI_ssvU1MrfMtV-137" value="" style="rounded=0;whiteSpace=wrap;html=1;" vertex="1" parent="1">
          <mxGeometry x="119" y="490" width="10" height="40" as="geometry" />
        </mxCell>
        <mxCell id="PyDRByAI_ssvU1MrfMtV-138" value="" style="rounded=0;whiteSpace=wrap;html=1;" vertex="1" parent="1">
          <mxGeometry x="139" y="490" width="10" height="40" as="geometry" />
        </mxCell>
        <mxCell id="PyDRByAI_ssvU1MrfMtV-139" value="" style="rounded=0;whiteSpace=wrap;html=1;" vertex="1" parent="1">
          <mxGeometry x="149" y="490" width="10" height="40" as="geometry" />
        </mxCell>
        <mxCell id="PyDRByAI_ssvU1MrfMtV-140" value="" style="rounded=0;whiteSpace=wrap;html=1;" vertex="1" parent="1">
          <mxGeometry x="159" y="490" width="10" height="40" as="geometry" />
        </mxCell>
        <mxCell id="PyDRByAI_ssvU1MrfMtV-141" value="" style="rounded=0;whiteSpace=wrap;html=1;" vertex="1" parent="1">
          <mxGeometry x="169" y="490" width="10" height="40" as="geometry" />
        </mxCell>
        <mxCell id="PyDRByAI_ssvU1MrfMtV-142" value="" style="rounded=0;whiteSpace=wrap;html=1;" vertex="1" parent="1">
          <mxGeometry x="179" y="490" width="10" height="40" as="geometry" />
        </mxCell>
        <mxCell id="PyDRByAI_ssvU1MrfMtV-143" value="" style="rounded=0;whiteSpace=wrap;html=1;" vertex="1" parent="1">
          <mxGeometry x="189" y="490" width="10" height="40" as="geometry" />
        </mxCell>
        <mxCell id="PyDRByAI_ssvU1MrfMtV-144" value="" style="rounded=0;whiteSpace=wrap;html=1;" vertex="1" parent="1">
          <mxGeometry x="199" y="490" width="10" height="40" as="geometry" />
        </mxCell>
        <mxCell id="PyDRByAI_ssvU1MrfMtV-145" value="" style="rounded=0;whiteSpace=wrap;html=1;" vertex="1" parent="1">
          <mxGeometry x="209" y="490" width="10" height="40" as="geometry" />
        </mxCell>
        <mxCell id="PyDRByAI_ssvU1MrfMtV-146" value="" style="rounded=0;whiteSpace=wrap;html=1;" vertex="1" parent="1">
          <mxGeometry x="229" y="490" width="10" height="40" as="geometry" />
        </mxCell>
        <mxCell id="PyDRByAI_ssvU1MrfMtV-147" value="" style="rounded=0;whiteSpace=wrap;html=1;" vertex="1" parent="1">
          <mxGeometry x="239" y="490" width="10" height="40" as="geometry" />
        </mxCell>
        <mxCell id="PyDRByAI_ssvU1MrfMtV-148" value="" style="rounded=0;whiteSpace=wrap;html=1;" vertex="1" parent="1">
          <mxGeometry x="249" y="490" width="10" height="40" as="geometry" />
        </mxCell>
        <mxCell id="PyDRByAI_ssvU1MrfMtV-149" value="" style="rounded=0;whiteSpace=wrap;html=1;" vertex="1" parent="1">
          <mxGeometry x="259" y="490" width="10" height="40" as="geometry" />
        </mxCell>
        <mxCell id="PyDRByAI_ssvU1MrfMtV-150" value="" style="rounded=0;whiteSpace=wrap;html=1;" vertex="1" parent="1">
          <mxGeometry x="269" y="490" width="10" height="40" as="geometry" />
        </mxCell>
        <mxCell id="PyDRByAI_ssvU1MrfMtV-151" value="" style="rounded=0;whiteSpace=wrap;html=1;" vertex="1" parent="1">
          <mxGeometry x="279" y="490" width="10" height="40" as="geometry" />
        </mxCell>
        <mxCell id="PyDRByAI_ssvU1MrfMtV-152" value="" style="rounded=0;whiteSpace=wrap;html=1;" vertex="1" parent="1">
          <mxGeometry x="289" y="490" width="10" height="40" as="geometry" />
        </mxCell>
        <mxCell id="PyDRByAI_ssvU1MrfMtV-153" value="" style="rounded=0;whiteSpace=wrap;html=1;" vertex="1" parent="1">
          <mxGeometry x="299" y="490" width="10" height="40" as="geometry" />
        </mxCell>
        <mxCell id="PyDRByAI_ssvU1MrfMtV-154" value="" style="rounded=0;whiteSpace=wrap;html=1;" vertex="1" parent="1">
          <mxGeometry x="319" y="490" width="10" height="40" as="geometry" />
        </mxCell>
        <mxCell id="PyDRByAI_ssvU1MrfMtV-155" value="" style="rounded=0;whiteSpace=wrap;html=1;" vertex="1" parent="1">
          <mxGeometry x="329" y="490" width="10" height="40" as="geometry" />
        </mxCell>
        <mxCell id="PyDRByAI_ssvU1MrfMtV-156" value="" style="rounded=0;whiteSpace=wrap;html=1;" vertex="1" parent="1">
          <mxGeometry x="339" y="490" width="10" height="40" as="geometry" />
        </mxCell>
        <mxCell id="PyDRByAI_ssvU1MrfMtV-157" value="" style="rounded=0;whiteSpace=wrap;html=1;" vertex="1" parent="1">
          <mxGeometry x="349" y="490" width="10" height="40" as="geometry" />
        </mxCell>
        <mxCell id="PyDRByAI_ssvU1MrfMtV-158" value="" style="rounded=0;whiteSpace=wrap;html=1;" vertex="1" parent="1">
          <mxGeometry x="359" y="490" width="10" height="40" as="geometry" />
        </mxCell>
        <mxCell id="PyDRByAI_ssvU1MrfMtV-159" value="" style="rounded=0;whiteSpace=wrap;html=1;" vertex="1" parent="1">
          <mxGeometry x="369" y="490" width="10" height="40" as="geometry" />
        </mxCell>
        <mxCell id="PyDRByAI_ssvU1MrfMtV-160" value="" style="rounded=0;whiteSpace=wrap;html=1;" vertex="1" parent="1">
          <mxGeometry x="379" y="490" width="10" height="40" as="geometry" />
        </mxCell>
        <mxCell id="PyDRByAI_ssvU1MrfMtV-161" value="" style="rounded=0;whiteSpace=wrap;html=1;" vertex="1" parent="1">
          <mxGeometry x="389" y="490" width="10" height="40" as="geometry" />
        </mxCell>
        <mxCell id="PyDRByAI_ssvU1MrfMtV-163" value="int number1" style="rounded=0;whiteSpace=wrap;html=1;" vertex="1" parent="1">
          <mxGeometry x="29" y="310" width="120" height="20" as="geometry" />
        </mxCell>
        <mxCell id="PyDRByAI_ssvU1MrfMtV-164" value="5 = 10&lt;sup&gt;0&lt;/sup&gt; * 5&amp;nbsp;&lt;br&gt;= 2&lt;sup&gt;2&lt;/sup&gt; * 1 + 2&lt;sup&gt;0&lt;/sup&gt; * 1" style="text;html=1;strokeColor=none;fillColor=none;align=center;verticalAlign=middle;whiteSpace=wrap;rounded=0;" vertex="1" parent="1">
          <mxGeometry x="439" y="280" width="130" height="30" as="geometry" />
        </mxCell>
        <mxCell id="PyDRByAI_ssvU1MrfMtV-166" value="2의 보수 : 모든 비트 반전 후&amp;nbsp; + 1" style="text;html=1;strokeColor=none;fillColor=none;align=center;verticalAlign=middle;whiteSpace=wrap;rounded=0;" vertex="1" parent="1">
          <mxGeometry x="439" y="330" width="220" height="30" as="geometry" />
        </mxCell>
        <mxCell id="PyDRByAI_ssvU1MrfMtV-199" value="" style="rounded=0;whiteSpace=wrap;html=1;fillColor=#dae8fc;strokeColor=#6c8ebf;" vertex="1" parent="1">
          <mxGeometry x="459" y="360" width="10" height="40" as="geometry" />
        </mxCell>
        <mxCell id="PyDRByAI_ssvU1MrfMtV-200" value="" style="rounded=0;whiteSpace=wrap;html=1;fillColor=#dae8fc;strokeColor=#6c8ebf;" vertex="1" parent="1">
          <mxGeometry x="469" y="360" width="10" height="40" as="geometry" />
        </mxCell>
        <mxCell id="PyDRByAI_ssvU1MrfMtV-201" value="" style="rounded=0;whiteSpace=wrap;html=1;fillColor=#dae8fc;strokeColor=#6c8ebf;" vertex="1" parent="1">
          <mxGeometry x="479" y="360" width="10" height="40" as="geometry" />
        </mxCell>
        <mxCell id="PyDRByAI_ssvU1MrfMtV-202" value="" style="rounded=0;whiteSpace=wrap;html=1;fillColor=#dae8fc;strokeColor=#6c8ebf;" vertex="1" parent="1">
          <mxGeometry x="489" y="360" width="10" height="40" as="geometry" />
        </mxCell>
        <mxCell id="PyDRByAI_ssvU1MrfMtV-203" value="" style="rounded=0;whiteSpace=wrap;html=1;fillColor=#dae8fc;strokeColor=#6c8ebf;" vertex="1" parent="1">
          <mxGeometry x="499" y="360" width="10" height="40" as="geometry" />
        </mxCell>
        <mxCell id="PyDRByAI_ssvU1MrfMtV-204" value="" style="rounded=0;whiteSpace=wrap;html=1;fillColor=#dae8fc;strokeColor=#6c8ebf;" vertex="1" parent="1">
          <mxGeometry x="509" y="360" width="10" height="40" as="geometry" />
        </mxCell>
        <mxCell id="PyDRByAI_ssvU1MrfMtV-205" value="" style="rounded=0;whiteSpace=wrap;html=1;fillColor=#dae8fc;strokeColor=#6c8ebf;" vertex="1" parent="1">
          <mxGeometry x="519" y="360" width="10" height="40" as="geometry" />
        </mxCell>
        <mxCell id="PyDRByAI_ssvU1MrfMtV-206" value="" style="rounded=0;whiteSpace=wrap;html=1;fillColor=#dae8fc;strokeColor=#6c8ebf;" vertex="1" parent="1">
          <mxGeometry x="529" y="360" width="10" height="40" as="geometry" />
        </mxCell>
        <mxCell id="PyDRByAI_ssvU1MrfMtV-207" value="" style="rounded=0;whiteSpace=wrap;html=1;fillColor=#dae8fc;strokeColor=#6c8ebf;" vertex="1" parent="1">
          <mxGeometry x="549" y="360" width="10" height="40" as="geometry" />
        </mxCell>
        <mxCell id="PyDRByAI_ssvU1MrfMtV-208" value="" style="rounded=0;whiteSpace=wrap;html=1;fillColor=#dae8fc;strokeColor=#6c8ebf;" vertex="1" parent="1">
          <mxGeometry x="559" y="360" width="10" height="40" as="geometry" />
        </mxCell>
        <mxCell id="PyDRByAI_ssvU1MrfMtV-209" value="" style="rounded=0;whiteSpace=wrap;html=1;fillColor=#dae8fc;strokeColor=#6c8ebf;" vertex="1" parent="1">
          <mxGeometry x="569" y="360" width="10" height="40" as="geometry" />
        </mxCell>
        <mxCell id="PyDRByAI_ssvU1MrfMtV-210" value="" style="rounded=0;whiteSpace=wrap;html=1;fillColor=#dae8fc;strokeColor=#6c8ebf;" vertex="1" parent="1">
          <mxGeometry x="579" y="360" width="10" height="40" as="geometry" />
        </mxCell>
        <mxCell id="PyDRByAI_ssvU1MrfMtV-211" value="" style="rounded=0;whiteSpace=wrap;html=1;fillColor=#dae8fc;strokeColor=#6c8ebf;" vertex="1" parent="1">
          <mxGeometry x="589" y="360" width="10" height="40" as="geometry" />
        </mxCell>
        <mxCell id="PyDRByAI_ssvU1MrfMtV-212" value="" style="rounded=0;whiteSpace=wrap;html=1;fillColor=#dae8fc;strokeColor=#6c8ebf;" vertex="1" parent="1">
          <mxGeometry x="599" y="360" width="10" height="40" as="geometry" />
        </mxCell>
        <mxCell id="PyDRByAI_ssvU1MrfMtV-213" value="" style="rounded=0;whiteSpace=wrap;html=1;fillColor=#dae8fc;strokeColor=#6c8ebf;" vertex="1" parent="1">
          <mxGeometry x="609" y="360" width="10" height="40" as="geometry" />
        </mxCell>
        <mxCell id="PyDRByAI_ssvU1MrfMtV-214" value="" style="rounded=0;whiteSpace=wrap;html=1;fillColor=#dae8fc;strokeColor=#6c8ebf;" vertex="1" parent="1">
          <mxGeometry x="619" y="360" width="10" height="40" as="geometry" />
        </mxCell>
        <mxCell id="PyDRByAI_ssvU1MrfMtV-215" value="" style="rounded=0;whiteSpace=wrap;html=1;fillColor=#dae8fc;strokeColor=#6c8ebf;" vertex="1" parent="1">
          <mxGeometry x="639" y="360" width="10" height="40" as="geometry" />
        </mxCell>
        <mxCell id="PyDRByAI_ssvU1MrfMtV-216" value="" style="rounded=0;whiteSpace=wrap;html=1;fillColor=#dae8fc;strokeColor=#6c8ebf;" vertex="1" parent="1">
          <mxGeometry x="649" y="360" width="10" height="40" as="geometry" />
        </mxCell>
        <mxCell id="PyDRByAI_ssvU1MrfMtV-217" value="" style="rounded=0;whiteSpace=wrap;html=1;fillColor=#dae8fc;strokeColor=#6c8ebf;" vertex="1" parent="1">
          <mxGeometry x="659" y="360" width="10" height="40" as="geometry" />
        </mxCell>
        <mxCell id="PyDRByAI_ssvU1MrfMtV-218" value="" style="rounded=0;whiteSpace=wrap;html=1;fillColor=#dae8fc;strokeColor=#6c8ebf;" vertex="1" parent="1">
          <mxGeometry x="669" y="360" width="10" height="40" as="geometry" />
        </mxCell>
        <mxCell id="PyDRByAI_ssvU1MrfMtV-219" value="" style="rounded=0;whiteSpace=wrap;html=1;fillColor=#dae8fc;strokeColor=#6c8ebf;" vertex="1" parent="1">
          <mxGeometry x="679" y="360" width="10" height="40" as="geometry" />
        </mxCell>
        <mxCell id="PyDRByAI_ssvU1MrfMtV-220" value="" style="rounded=0;whiteSpace=wrap;html=1;fillColor=#dae8fc;strokeColor=#6c8ebf;" vertex="1" parent="1">
          <mxGeometry x="689" y="360" width="10" height="40" as="geometry" />
        </mxCell>
        <mxCell id="PyDRByAI_ssvU1MrfMtV-221" value="" style="rounded=0;whiteSpace=wrap;html=1;fillColor=#dae8fc;strokeColor=#6c8ebf;" vertex="1" parent="1">
          <mxGeometry x="699" y="360" width="10" height="40" as="geometry" />
        </mxCell>
        <mxCell id="PyDRByAI_ssvU1MrfMtV-222" value="" style="rounded=0;whiteSpace=wrap;html=1;fillColor=#dae8fc;strokeColor=#6c8ebf;" vertex="1" parent="1">
          <mxGeometry x="709" y="360" width="10" height="40" as="geometry" />
        </mxCell>
        <mxCell id="PyDRByAI_ssvU1MrfMtV-223" value="" style="rounded=0;whiteSpace=wrap;html=1;fillColor=#dae8fc;strokeColor=#6c8ebf;" vertex="1" parent="1">
          <mxGeometry x="729" y="360" width="10" height="40" as="geometry" />
        </mxCell>
        <mxCell id="PyDRByAI_ssvU1MrfMtV-224" value="" style="rounded=0;whiteSpace=wrap;html=1;fillColor=#dae8fc;strokeColor=#6c8ebf;" vertex="1" parent="1">
          <mxGeometry x="739" y="360" width="10" height="40" as="geometry" />
        </mxCell>
        <mxCell id="PyDRByAI_ssvU1MrfMtV-225" value="" style="rounded=0;whiteSpace=wrap;html=1;fillColor=#dae8fc;strokeColor=#6c8ebf;" vertex="1" parent="1">
          <mxGeometry x="749" y="360" width="10" height="40" as="geometry" />
        </mxCell>
        <mxCell id="PyDRByAI_ssvU1MrfMtV-226" value="" style="rounded=0;whiteSpace=wrap;html=1;fillColor=#dae8fc;strokeColor=#6c8ebf;" vertex="1" parent="1">
          <mxGeometry x="759" y="360" width="10" height="40" as="geometry" />
        </mxCell>
        <mxCell id="PyDRByAI_ssvU1MrfMtV-227" value="" style="rounded=0;whiteSpace=wrap;html=1;fillColor=#dae8fc;strokeColor=#6c8ebf;" vertex="1" parent="1">
          <mxGeometry x="769" y="360" width="10" height="40" as="geometry" />
        </mxCell>
        <mxCell id="PyDRByAI_ssvU1MrfMtV-228" value="" style="rounded=0;whiteSpace=wrap;html=1;" vertex="1" parent="1">
          <mxGeometry x="779" y="360" width="10" height="40" as="geometry" />
        </mxCell>
        <mxCell id="PyDRByAI_ssvU1MrfMtV-229" value="" style="rounded=0;whiteSpace=wrap;html=1;fillColor=#dae8fc;strokeColor=#6c8ebf;" vertex="1" parent="1">
          <mxGeometry x="789" y="360" width="10" height="40" as="geometry" />
        </mxCell>
        <mxCell id="PyDRByAI_ssvU1MrfMtV-230" value="" style="rounded=0;whiteSpace=wrap;html=1;fillColor=#dae8fc;strokeColor=#6c8ebf;" vertex="1" parent="1">
          <mxGeometry x="799" y="360" width="10" height="40" as="geometry" />
        </mxCell>
        <mxCell id="PyDRByAI_ssvU1MrfMtV-231" value="" style="rounded=0;whiteSpace=wrap;html=1;" vertex="1" parent="1">
          <mxGeometry x="459" y="420" width="10" height="40" as="geometry" />
        </mxCell>
        <mxCell id="PyDRByAI_ssvU1MrfMtV-232" value="" style="rounded=0;whiteSpace=wrap;html=1;" vertex="1" parent="1">
          <mxGeometry x="469" y="420" width="10" height="40" as="geometry" />
        </mxCell>
        <mxCell id="PyDRByAI_ssvU1MrfMtV-233" value="" style="rounded=0;whiteSpace=wrap;html=1;" vertex="1" parent="1">
          <mxGeometry x="479" y="420" width="10" height="40" as="geometry" />
        </mxCell>
        <mxCell id="PyDRByAI_ssvU1MrfMtV-234" value="" style="rounded=0;whiteSpace=wrap;html=1;" vertex="1" parent="1">
          <mxGeometry x="489" y="420" width="10" height="40" as="geometry" />
        </mxCell>
        <mxCell id="PyDRByAI_ssvU1MrfMtV-235" value="" style="rounded=0;whiteSpace=wrap;html=1;" vertex="1" parent="1">
          <mxGeometry x="499" y="420" width="10" height="40" as="geometry" />
        </mxCell>
        <mxCell id="PyDRByAI_ssvU1MrfMtV-236" value="" style="rounded=0;whiteSpace=wrap;html=1;" vertex="1" parent="1">
          <mxGeometry x="509" y="420" width="10" height="40" as="geometry" />
        </mxCell>
        <mxCell id="PyDRByAI_ssvU1MrfMtV-237" value="" style="rounded=0;whiteSpace=wrap;html=1;" vertex="1" parent="1">
          <mxGeometry x="519" y="420" width="10" height="40" as="geometry" />
        </mxCell>
        <mxCell id="PyDRByAI_ssvU1MrfMtV-238" value="" style="rounded=0;whiteSpace=wrap;html=1;" vertex="1" parent="1">
          <mxGeometry x="529" y="420" width="10" height="40" as="geometry" />
        </mxCell>
        <mxCell id="PyDRByAI_ssvU1MrfMtV-239" value="" style="rounded=0;whiteSpace=wrap;html=1;" vertex="1" parent="1">
          <mxGeometry x="549" y="420" width="10" height="40" as="geometry" />
        </mxCell>
        <mxCell id="PyDRByAI_ssvU1MrfMtV-240" value="" style="rounded=0;whiteSpace=wrap;html=1;" vertex="1" parent="1">
          <mxGeometry x="559" y="420" width="10" height="40" as="geometry" />
        </mxCell>
        <mxCell id="PyDRByAI_ssvU1MrfMtV-241" value="" style="rounded=0;whiteSpace=wrap;html=1;" vertex="1" parent="1">
          <mxGeometry x="569" y="420" width="10" height="40" as="geometry" />
        </mxCell>
        <mxCell id="PyDRByAI_ssvU1MrfMtV-242" value="" style="rounded=0;whiteSpace=wrap;html=1;" vertex="1" parent="1">
          <mxGeometry x="579" y="420" width="10" height="40" as="geometry" />
        </mxCell>
        <mxCell id="PyDRByAI_ssvU1MrfMtV-243" value="" style="rounded=0;whiteSpace=wrap;html=1;" vertex="1" parent="1">
          <mxGeometry x="589" y="420" width="10" height="40" as="geometry" />
        </mxCell>
        <mxCell id="PyDRByAI_ssvU1MrfMtV-244" value="" style="rounded=0;whiteSpace=wrap;html=1;" vertex="1" parent="1">
          <mxGeometry x="599" y="420" width="10" height="40" as="geometry" />
        </mxCell>
        <mxCell id="PyDRByAI_ssvU1MrfMtV-245" value="" style="rounded=0;whiteSpace=wrap;html=1;" vertex="1" parent="1">
          <mxGeometry x="609" y="420" width="10" height="40" as="geometry" />
        </mxCell>
        <mxCell id="PyDRByAI_ssvU1MrfMtV-246" value="" style="rounded=0;whiteSpace=wrap;html=1;" vertex="1" parent="1">
          <mxGeometry x="619" y="420" width="10" height="40" as="geometry" />
        </mxCell>
        <mxCell id="PyDRByAI_ssvU1MrfMtV-247" value="" style="rounded=0;whiteSpace=wrap;html=1;" vertex="1" parent="1">
          <mxGeometry x="639" y="420" width="10" height="40" as="geometry" />
        </mxCell>
        <mxCell id="PyDRByAI_ssvU1MrfMtV-248" value="" style="rounded=0;whiteSpace=wrap;html=1;" vertex="1" parent="1">
          <mxGeometry x="649" y="420" width="10" height="40" as="geometry" />
        </mxCell>
        <mxCell id="PyDRByAI_ssvU1MrfMtV-249" value="" style="rounded=0;whiteSpace=wrap;html=1;" vertex="1" parent="1">
          <mxGeometry x="659" y="420" width="10" height="40" as="geometry" />
        </mxCell>
        <mxCell id="PyDRByAI_ssvU1MrfMtV-250" value="" style="rounded=0;whiteSpace=wrap;html=1;" vertex="1" parent="1">
          <mxGeometry x="669" y="420" width="10" height="40" as="geometry" />
        </mxCell>
        <mxCell id="PyDRByAI_ssvU1MrfMtV-251" value="" style="rounded=0;whiteSpace=wrap;html=1;" vertex="1" parent="1">
          <mxGeometry x="679" y="420" width="10" height="40" as="geometry" />
        </mxCell>
        <mxCell id="PyDRByAI_ssvU1MrfMtV-252" value="" style="rounded=0;whiteSpace=wrap;html=1;" vertex="1" parent="1">
          <mxGeometry x="689" y="420" width="10" height="40" as="geometry" />
        </mxCell>
        <mxCell id="PyDRByAI_ssvU1MrfMtV-253" value="" style="rounded=0;whiteSpace=wrap;html=1;" vertex="1" parent="1">
          <mxGeometry x="699" y="420" width="10" height="40" as="geometry" />
        </mxCell>
        <mxCell id="PyDRByAI_ssvU1MrfMtV-254" value="" style="rounded=0;whiteSpace=wrap;html=1;" vertex="1" parent="1">
          <mxGeometry x="709" y="420" width="10" height="40" as="geometry" />
        </mxCell>
        <mxCell id="PyDRByAI_ssvU1MrfMtV-255" value="" style="rounded=0;whiteSpace=wrap;html=1;" vertex="1" parent="1">
          <mxGeometry x="729" y="420" width="10" height="40" as="geometry" />
        </mxCell>
        <mxCell id="PyDRByAI_ssvU1MrfMtV-256" value="" style="rounded=0;whiteSpace=wrap;html=1;" vertex="1" parent="1">
          <mxGeometry x="739" y="420" width="10" height="40" as="geometry" />
        </mxCell>
        <mxCell id="PyDRByAI_ssvU1MrfMtV-257" value="" style="rounded=0;whiteSpace=wrap;html=1;" vertex="1" parent="1">
          <mxGeometry x="749" y="420" width="10" height="40" as="geometry" />
        </mxCell>
        <mxCell id="PyDRByAI_ssvU1MrfMtV-258" value="" style="rounded=0;whiteSpace=wrap;html=1;" vertex="1" parent="1">
          <mxGeometry x="759" y="420" width="10" height="40" as="geometry" />
        </mxCell>
        <mxCell id="PyDRByAI_ssvU1MrfMtV-259" value="" style="rounded=0;whiteSpace=wrap;html=1;" vertex="1" parent="1">
          <mxGeometry x="769" y="420" width="10" height="40" as="geometry" />
        </mxCell>
        <mxCell id="PyDRByAI_ssvU1MrfMtV-260" value="" style="rounded=0;whiteSpace=wrap;html=1;fillColor=#dae8fc;strokeColor=#6c8ebf;" vertex="1" parent="1">
          <mxGeometry x="779" y="420" width="10" height="40" as="geometry" />
        </mxCell>
        <mxCell id="PyDRByAI_ssvU1MrfMtV-261" value="" style="rounded=0;whiteSpace=wrap;html=1;" vertex="1" parent="1">
          <mxGeometry x="789" y="420" width="10" height="40" as="geometry" />
        </mxCell>
        <mxCell id="PyDRByAI_ssvU1MrfMtV-262" value="" style="rounded=0;whiteSpace=wrap;html=1;fillColor=#dae8fc;strokeColor=#6c8ebf;" vertex="1" parent="1">
          <mxGeometry x="799" y="420" width="10" height="40" as="geometry" />
        </mxCell>
        <mxCell id="PyDRByAI_ssvU1MrfMtV-263" value="" style="rounded=0;whiteSpace=wrap;html=1;" vertex="1" parent="1">
          <mxGeometry x="91.5" y="630" width="167.5" height="230" as="geometry" />
        </mxCell>
        <mxCell id="PyDRByAI_ssvU1MrfMtV-264" value="CPU" style="rounded=0;whiteSpace=wrap;html=1;" vertex="1" parent="1">
          <mxGeometry x="529" y="660" width="125" height="130" as="geometry" />
        </mxCell>
        <mxCell id="PyDRByAI_ssvU1MrfMtV-272" style="edgeStyle=orthogonalEdgeStyle;rounded=0;orthogonalLoop=1;jettySize=auto;html=1;entryX=1;entryY=0.5;entryDx=0;entryDy=0;" edge="1" parent="1" source="PyDRByAI_ssvU1MrfMtV-265" target="PyDRByAI_ssvU1MrfMtV-268">
          <mxGeometry relative="1" as="geometry" />
        </mxCell>
        <mxCell id="PyDRByAI_ssvU1MrfMtV-265" value="register" style="rounded=0;whiteSpace=wrap;html=1;" vertex="1" parent="1">
          <mxGeometry x="474" y="670" width="65" height="30" as="geometry" />
        </mxCell>
        <mxCell id="PyDRByAI_ssvU1MrfMtV-273" style="edgeStyle=orthogonalEdgeStyle;rounded=0;orthogonalLoop=1;jettySize=auto;html=1;entryX=1;entryY=0.5;entryDx=0;entryDy=0;" edge="1" parent="1" source="PyDRByAI_ssvU1MrfMtV-266" target="PyDRByAI_ssvU1MrfMtV-270">
          <mxGeometry relative="1" as="geometry" />
        </mxCell>
        <mxCell id="PyDRByAI_ssvU1MrfMtV-266" value="register" style="rounded=0;whiteSpace=wrap;html=1;" vertex="1" parent="1">
          <mxGeometry x="474" y="710" width="65" height="30" as="geometry" />
        </mxCell>
        <mxCell id="PyDRByAI_ssvU1MrfMtV-274" style="edgeStyle=orthogonalEdgeStyle;rounded=0;orthogonalLoop=1;jettySize=auto;html=1;entryX=1;entryY=0.5;entryDx=0;entryDy=0;" edge="1" parent="1" source="PyDRByAI_ssvU1MrfMtV-267" target="PyDRByAI_ssvU1MrfMtV-271">
          <mxGeometry relative="1" as="geometry" />
        </mxCell>
        <mxCell id="PyDRByAI_ssvU1MrfMtV-267" value="register" style="rounded=0;whiteSpace=wrap;html=1;" vertex="1" parent="1">
          <mxGeometry x="474" y="750" width="65" height="30" as="geometry" />
        </mxCell>
        <mxCell id="PyDRByAI_ssvU1MrfMtV-268" value="number1" style="rounded=0;whiteSpace=wrap;html=1;" vertex="1" parent="1">
          <mxGeometry x="94" y="650" width="85" height="20" as="geometry" />
        </mxCell>
        <mxCell id="PyDRByAI_ssvU1MrfMtV-270" value="number2" style="rounded=0;whiteSpace=wrap;html=1;" vertex="1" parent="1">
          <mxGeometry x="94" y="680" width="85" height="20" as="geometry" />
        </mxCell>
        <mxCell id="PyDRByAI_ssvU1MrfMtV-271" value="long1" style="rounded=0;whiteSpace=wrap;html=1;" vertex="1" parent="1">
          <mxGeometry x="94" y="730" width="85" height="20" as="geometry" />
        </mxCell>
        <mxCell id="PyDRByAI_ssvU1MrfMtV-275" value="덧셈회로" style="rounded=0;whiteSpace=wrap;html=1;" vertex="1" parent="1">
          <mxGeometry x="549" y="690" width="30" height="30" as="geometry" />
        </mxCell>
        <mxCell id="PyDRByAI_ssvU1MrfMtV-276" value="" style="rounded=0;whiteSpace=wrap;html=1;" vertex="1" parent="1">
          <mxGeometry x="54" y="570" width="10" height="40" as="geometry" />
        </mxCell>
        <mxCell id="PyDRByAI_ssvU1MrfMtV-277" value="" style="rounded=0;whiteSpace=wrap;html=1;" vertex="1" parent="1">
          <mxGeometry x="64" y="570" width="10" height="40" as="geometry" />
        </mxCell>
        <mxCell id="PyDRByAI_ssvU1MrfMtV-278" value="" style="rounded=0;whiteSpace=wrap;html=1;" vertex="1" parent="1">
          <mxGeometry x="74" y="570" width="10" height="40" as="geometry" />
        </mxCell>
        <mxCell id="PyDRByAI_ssvU1MrfMtV-279" value="" style="rounded=0;whiteSpace=wrap;html=1;" vertex="1" parent="1">
          <mxGeometry x="84" y="570" width="10" height="40" as="geometry" />
        </mxCell>
        <mxCell id="PyDRByAI_ssvU1MrfMtV-280" value="" style="rounded=0;whiteSpace=wrap;html=1;" vertex="1" parent="1">
          <mxGeometry x="94" y="570" width="10" height="40" as="geometry" />
        </mxCell>
        <mxCell id="PyDRByAI_ssvU1MrfMtV-281" value="" style="rounded=0;whiteSpace=wrap;html=1;" vertex="1" parent="1">
          <mxGeometry x="104" y="570" width="10" height="40" as="geometry" />
        </mxCell>
        <mxCell id="PyDRByAI_ssvU1MrfMtV-282" value="" style="rounded=0;whiteSpace=wrap;html=1;" vertex="1" parent="1">
          <mxGeometry x="114" y="570" width="10" height="40" as="geometry" />
        </mxCell>
        <mxCell id="PyDRByAI_ssvU1MrfMtV-283" value="" style="rounded=0;whiteSpace=wrap;html=1;" vertex="1" parent="1">
          <mxGeometry x="124" y="570" width="10" height="40" as="geometry" />
        </mxCell>
        <mxCell id="PyDRByAI_ssvU1MrfMtV-284" value="" style="rounded=0;whiteSpace=wrap;html=1;" vertex="1" parent="1">
          <mxGeometry x="144" y="570" width="10" height="40" as="geometry" />
        </mxCell>
        <mxCell id="PyDRByAI_ssvU1MrfMtV-285" value="" style="rounded=0;whiteSpace=wrap;html=1;" vertex="1" parent="1">
          <mxGeometry x="154" y="570" width="10" height="40" as="geometry" />
        </mxCell>
        <mxCell id="PyDRByAI_ssvU1MrfMtV-286" value="" style="rounded=0;whiteSpace=wrap;html=1;" vertex="1" parent="1">
          <mxGeometry x="164" y="570" width="10" height="40" as="geometry" />
        </mxCell>
        <mxCell id="PyDRByAI_ssvU1MrfMtV-287" value="" style="rounded=0;whiteSpace=wrap;html=1;" vertex="1" parent="1">
          <mxGeometry x="174" y="570" width="10" height="40" as="geometry" />
        </mxCell>
        <mxCell id="PyDRByAI_ssvU1MrfMtV-288" value="" style="rounded=0;whiteSpace=wrap;html=1;" vertex="1" parent="1">
          <mxGeometry x="184" y="570" width="10" height="40" as="geometry" />
        </mxCell>
        <mxCell id="PyDRByAI_ssvU1MrfMtV-289" value="" style="rounded=0;whiteSpace=wrap;html=1;" vertex="1" parent="1">
          <mxGeometry x="194" y="570" width="10" height="40" as="geometry" />
        </mxCell>
        <mxCell id="PyDRByAI_ssvU1MrfMtV-290" value="" style="rounded=0;whiteSpace=wrap;html=1;" vertex="1" parent="1">
          <mxGeometry x="204" y="570" width="10" height="40" as="geometry" />
        </mxCell>
        <mxCell id="PyDRByAI_ssvU1MrfMtV-291" value="" style="rounded=0;whiteSpace=wrap;html=1;" vertex="1" parent="1">
          <mxGeometry x="214" y="570" width="10" height="40" as="geometry" />
        </mxCell>
        <mxCell id="PyDRByAI_ssvU1MrfMtV-292" value="" style="rounded=0;whiteSpace=wrap;html=1;" vertex="1" parent="1">
          <mxGeometry x="234" y="570" width="10" height="40" as="geometry" />
        </mxCell>
        <mxCell id="PyDRByAI_ssvU1MrfMtV-293" value="" style="rounded=0;whiteSpace=wrap;html=1;" vertex="1" parent="1">
          <mxGeometry x="244" y="570" width="10" height="40" as="geometry" />
        </mxCell>
        <mxCell id="PyDRByAI_ssvU1MrfMtV-294" value="" style="rounded=0;whiteSpace=wrap;html=1;" vertex="1" parent="1">
          <mxGeometry x="254" y="570" width="10" height="40" as="geometry" />
        </mxCell>
        <mxCell id="PyDRByAI_ssvU1MrfMtV-295" value="" style="rounded=0;whiteSpace=wrap;html=1;" vertex="1" parent="1">
          <mxGeometry x="264" y="570" width="10" height="40" as="geometry" />
        </mxCell>
        <mxCell id="PyDRByAI_ssvU1MrfMtV-296" value="" style="rounded=0;whiteSpace=wrap;html=1;" vertex="1" parent="1">
          <mxGeometry x="274" y="570" width="10" height="40" as="geometry" />
        </mxCell>
        <mxCell id="PyDRByAI_ssvU1MrfMtV-297" value="" style="rounded=0;whiteSpace=wrap;html=1;" vertex="1" parent="1">
          <mxGeometry x="284" y="570" width="10" height="40" as="geometry" />
        </mxCell>
        <mxCell id="PyDRByAI_ssvU1MrfMtV-298" value="" style="rounded=0;whiteSpace=wrap;html=1;" vertex="1" parent="1">
          <mxGeometry x="294" y="570" width="10" height="40" as="geometry" />
        </mxCell>
        <mxCell id="PyDRByAI_ssvU1MrfMtV-299" value="" style="rounded=0;whiteSpace=wrap;html=1;" vertex="1" parent="1">
          <mxGeometry x="304" y="570" width="10" height="40" as="geometry" />
        </mxCell>
        <mxCell id="PyDRByAI_ssvU1MrfMtV-300" value="" style="rounded=0;whiteSpace=wrap;html=1;" vertex="1" parent="1">
          <mxGeometry x="324" y="570" width="10" height="40" as="geometry" />
        </mxCell>
        <mxCell id="PyDRByAI_ssvU1MrfMtV-301" value="" style="rounded=0;whiteSpace=wrap;html=1;" vertex="1" parent="1">
          <mxGeometry x="334" y="570" width="10" height="40" as="geometry" />
        </mxCell>
        <mxCell id="PyDRByAI_ssvU1MrfMtV-302" value="" style="rounded=0;whiteSpace=wrap;html=1;" vertex="1" parent="1">
          <mxGeometry x="344" y="570" width="10" height="40" as="geometry" />
        </mxCell>
        <mxCell id="PyDRByAI_ssvU1MrfMtV-303" value="" style="rounded=0;whiteSpace=wrap;html=1;" vertex="1" parent="1">
          <mxGeometry x="354" y="570" width="10" height="40" as="geometry" />
        </mxCell>
        <mxCell id="PyDRByAI_ssvU1MrfMtV-304" value="" style="rounded=0;whiteSpace=wrap;html=1;" vertex="1" parent="1">
          <mxGeometry x="364" y="570" width="10" height="40" as="geometry" />
        </mxCell>
        <mxCell id="PyDRByAI_ssvU1MrfMtV-305" value="" style="rounded=0;whiteSpace=wrap;html=1;" vertex="1" parent="1">
          <mxGeometry x="374" y="570" width="10" height="40" as="geometry" />
        </mxCell>
        <mxCell id="PyDRByAI_ssvU1MrfMtV-306" value="" style="rounded=0;whiteSpace=wrap;html=1;" vertex="1" parent="1">
          <mxGeometry x="384" y="570" width="10" height="40" as="geometry" />
        </mxCell>
        <mxCell id="PyDRByAI_ssvU1MrfMtV-307" value="" style="rounded=0;whiteSpace=wrap;html=1;" vertex="1" parent="1">
          <mxGeometry x="394" y="570" width="10" height="40" as="geometry" />
        </mxCell>
        <mxCell id="PyDRByAI_ssvU1MrfMtV-340" value="" style="rounded=0;whiteSpace=wrap;html=1;" vertex="1" parent="1">
          <mxGeometry x="423" y="570" width="10" height="40" as="geometry" />
        </mxCell>
        <mxCell id="PyDRByAI_ssvU1MrfMtV-341" value="" style="rounded=0;whiteSpace=wrap;html=1;" vertex="1" parent="1">
          <mxGeometry x="433" y="570" width="10" height="40" as="geometry" />
        </mxCell>
        <mxCell id="PyDRByAI_ssvU1MrfMtV-342" value="" style="rounded=0;whiteSpace=wrap;html=1;" vertex="1" parent="1">
          <mxGeometry x="443" y="570" width="10" height="40" as="geometry" />
        </mxCell>
        <mxCell id="PyDRByAI_ssvU1MrfMtV-343" value="" style="rounded=0;whiteSpace=wrap;html=1;" vertex="1" parent="1">
          <mxGeometry x="453" y="570" width="10" height="40" as="geometry" />
        </mxCell>
        <mxCell id="PyDRByAI_ssvU1MrfMtV-344" value="" style="rounded=0;whiteSpace=wrap;html=1;" vertex="1" parent="1">
          <mxGeometry x="463" y="570" width="10" height="40" as="geometry" />
        </mxCell>
        <mxCell id="PyDRByAI_ssvU1MrfMtV-345" value="" style="rounded=0;whiteSpace=wrap;html=1;" vertex="1" parent="1">
          <mxGeometry x="473" y="570" width="10" height="40" as="geometry" />
        </mxCell>
        <mxCell id="PyDRByAI_ssvU1MrfMtV-346" value="" style="rounded=0;whiteSpace=wrap;html=1;" vertex="1" parent="1">
          <mxGeometry x="483" y="570" width="10" height="40" as="geometry" />
        </mxCell>
        <mxCell id="PyDRByAI_ssvU1MrfMtV-347" value="" style="rounded=0;whiteSpace=wrap;html=1;" vertex="1" parent="1">
          <mxGeometry x="493" y="570" width="10" height="40" as="geometry" />
        </mxCell>
        <mxCell id="PyDRByAI_ssvU1MrfMtV-348" value="" style="rounded=0;whiteSpace=wrap;html=1;" vertex="1" parent="1">
          <mxGeometry x="513" y="570" width="10" height="40" as="geometry" />
        </mxCell>
        <mxCell id="PyDRByAI_ssvU1MrfMtV-349" value="" style="rounded=0;whiteSpace=wrap;html=1;" vertex="1" parent="1">
          <mxGeometry x="523" y="570" width="10" height="40" as="geometry" />
        </mxCell>
        <mxCell id="PyDRByAI_ssvU1MrfMtV-350" value="" style="rounded=0;whiteSpace=wrap;html=1;" vertex="1" parent="1">
          <mxGeometry x="533" y="570" width="10" height="40" as="geometry" />
        </mxCell>
        <mxCell id="PyDRByAI_ssvU1MrfMtV-351" value="" style="rounded=0;whiteSpace=wrap;html=1;" vertex="1" parent="1">
          <mxGeometry x="543" y="570" width="10" height="40" as="geometry" />
        </mxCell>
        <mxCell id="PyDRByAI_ssvU1MrfMtV-352" value="" style="rounded=0;whiteSpace=wrap;html=1;" vertex="1" parent="1">
          <mxGeometry x="553" y="570" width="10" height="40" as="geometry" />
        </mxCell>
        <mxCell id="PyDRByAI_ssvU1MrfMtV-353" value="" style="rounded=0;whiteSpace=wrap;html=1;" vertex="1" parent="1">
          <mxGeometry x="563" y="570" width="10" height="40" as="geometry" />
        </mxCell>
        <mxCell id="PyDRByAI_ssvU1MrfMtV-354" value="" style="rounded=0;whiteSpace=wrap;html=1;" vertex="1" parent="1">
          <mxGeometry x="573" y="570" width="10" height="40" as="geometry" />
        </mxCell>
        <mxCell id="PyDRByAI_ssvU1MrfMtV-355" value="" style="rounded=0;whiteSpace=wrap;html=1;" vertex="1" parent="1">
          <mxGeometry x="583" y="570" width="10" height="40" as="geometry" />
        </mxCell>
        <mxCell id="PyDRByAI_ssvU1MrfMtV-356" value="" style="rounded=0;whiteSpace=wrap;html=1;" vertex="1" parent="1">
          <mxGeometry x="603" y="570" width="10" height="40" as="geometry" />
        </mxCell>
        <mxCell id="PyDRByAI_ssvU1MrfMtV-357" value="" style="rounded=0;whiteSpace=wrap;html=1;" vertex="1" parent="1">
          <mxGeometry x="613" y="570" width="10" height="40" as="geometry" />
        </mxCell>
        <mxCell id="PyDRByAI_ssvU1MrfMtV-358" value="" style="rounded=0;whiteSpace=wrap;html=1;" vertex="1" parent="1">
          <mxGeometry x="623" y="570" width="10" height="40" as="geometry" />
        </mxCell>
        <mxCell id="PyDRByAI_ssvU1MrfMtV-359" value="" style="rounded=0;whiteSpace=wrap;html=1;" vertex="1" parent="1">
          <mxGeometry x="633" y="570" width="10" height="40" as="geometry" />
        </mxCell>
        <mxCell id="PyDRByAI_ssvU1MrfMtV-360" value="" style="rounded=0;whiteSpace=wrap;html=1;" vertex="1" parent="1">
          <mxGeometry x="643" y="570" width="10" height="40" as="geometry" />
        </mxCell>
        <mxCell id="PyDRByAI_ssvU1MrfMtV-361" value="" style="rounded=0;whiteSpace=wrap;html=1;" vertex="1" parent="1">
          <mxGeometry x="653" y="570" width="10" height="40" as="geometry" />
        </mxCell>
        <mxCell id="PyDRByAI_ssvU1MrfMtV-362" value="" style="rounded=0;whiteSpace=wrap;html=1;" vertex="1" parent="1">
          <mxGeometry x="663" y="570" width="10" height="40" as="geometry" />
        </mxCell>
        <mxCell id="PyDRByAI_ssvU1MrfMtV-363" value="" style="rounded=0;whiteSpace=wrap;html=1;" vertex="1" parent="1">
          <mxGeometry x="673" y="570" width="10" height="40" as="geometry" />
        </mxCell>
        <mxCell id="PyDRByAI_ssvU1MrfMtV-364" value="" style="rounded=0;whiteSpace=wrap;html=1;" vertex="1" parent="1">
          <mxGeometry x="693" y="570" width="10" height="40" as="geometry" />
        </mxCell>
        <mxCell id="PyDRByAI_ssvU1MrfMtV-365" value="" style="rounded=0;whiteSpace=wrap;html=1;" vertex="1" parent="1">
          <mxGeometry x="703" y="570" width="10" height="40" as="geometry" />
        </mxCell>
        <mxCell id="PyDRByAI_ssvU1MrfMtV-366" value="" style="rounded=0;whiteSpace=wrap;html=1;" vertex="1" parent="1">
          <mxGeometry x="713" y="570" width="10" height="40" as="geometry" />
        </mxCell>
        <mxCell id="PyDRByAI_ssvU1MrfMtV-367" value="" style="rounded=0;whiteSpace=wrap;html=1;" vertex="1" parent="1">
          <mxGeometry x="723" y="570" width="10" height="40" as="geometry" />
        </mxCell>
        <mxCell id="PyDRByAI_ssvU1MrfMtV-368" value="" style="rounded=0;whiteSpace=wrap;html=1;" vertex="1" parent="1">
          <mxGeometry x="733" y="570" width="10" height="40" as="geometry" />
        </mxCell>
        <mxCell id="PyDRByAI_ssvU1MrfMtV-369" value="" style="rounded=0;whiteSpace=wrap;html=1;" vertex="1" parent="1">
          <mxGeometry x="743" y="570" width="10" height="40" as="geometry" />
        </mxCell>
        <mxCell id="PyDRByAI_ssvU1MrfMtV-370" value="" style="rounded=0;whiteSpace=wrap;html=1;" vertex="1" parent="1">
          <mxGeometry x="753" y="570" width="10" height="40" as="geometry" />
        </mxCell>
        <mxCell id="PyDRByAI_ssvU1MrfMtV-371" value="" style="rounded=0;whiteSpace=wrap;html=1;" vertex="1" parent="1">
          <mxGeometry x="763" y="570" width="10" height="40" as="geometry" />
        </mxCell>
        <mxCell id="PyDRByAI_ssvU1MrfMtV-373" value="long1" style="rounded=0;whiteSpace=wrap;html=1;" vertex="1" parent="1">
          <mxGeometry x="39" y="540" width="120" height="20" as="geometry" />
        </mxCell>
        <mxCell id="PyDRByAI_ssvU1MrfMtV-374" value="10 = 2^3 + 2^1" style="text;html=1;strokeColor=none;fillColor=none;align=center;verticalAlign=middle;whiteSpace=wrap;rounded=0;" vertex="1" parent="1">
          <mxGeometry x="453" y="490" width="130" height="30" as="geometry" />
        </mxCell>
        <mxCell id="PyDRByAI_ssvU1MrfMtV-375" value="" style="rounded=0;whiteSpace=wrap;html=1;" vertex="1" parent="1">
          <mxGeometry x="423" y="570" width="10" height="40" as="geometry" />
        </mxCell>
        <mxCell id="PyDRByAI_ssvU1MrfMtV-376" value="" style="rounded=0;whiteSpace=wrap;html=1;" vertex="1" parent="1">
          <mxGeometry x="433" y="570" width="10" height="40" as="geometry" />
        </mxCell>
        <mxCell id="PyDRByAI_ssvU1MrfMtV-377" value="" style="rounded=0;whiteSpace=wrap;html=1;" vertex="1" parent="1">
          <mxGeometry x="443" y="570" width="10" height="40" as="geometry" />
        </mxCell>
        <mxCell id="PyDRByAI_ssvU1MrfMtV-378" value="" style="rounded=0;whiteSpace=wrap;html=1;" vertex="1" parent="1">
          <mxGeometry x="453" y="570" width="10" height="40" as="geometry" />
        </mxCell>
        <mxCell id="PyDRByAI_ssvU1MrfMtV-379" value="" style="rounded=0;whiteSpace=wrap;html=1;" vertex="1" parent="1">
          <mxGeometry x="463" y="570" width="10" height="40" as="geometry" />
        </mxCell>
        <mxCell id="PyDRByAI_ssvU1MrfMtV-380" value="" style="rounded=0;whiteSpace=wrap;html=1;" vertex="1" parent="1">
          <mxGeometry x="473" y="570" width="10" height="40" as="geometry" />
        </mxCell>
        <mxCell id="PyDRByAI_ssvU1MrfMtV-381" value="" style="rounded=0;whiteSpace=wrap;html=1;" vertex="1" parent="1">
          <mxGeometry x="483" y="570" width="10" height="40" as="geometry" />
        </mxCell>
        <mxCell id="PyDRByAI_ssvU1MrfMtV-382" value="" style="rounded=0;whiteSpace=wrap;html=1;" vertex="1" parent="1">
          <mxGeometry x="493" y="570" width="10" height="40" as="geometry" />
        </mxCell>
        <mxCell id="PyDRByAI_ssvU1MrfMtV-383" value="" style="rounded=0;whiteSpace=wrap;html=1;" vertex="1" parent="1">
          <mxGeometry x="513" y="570" width="10" height="40" as="geometry" />
        </mxCell>
        <mxCell id="PyDRByAI_ssvU1MrfMtV-384" value="" style="rounded=0;whiteSpace=wrap;html=1;" vertex="1" parent="1">
          <mxGeometry x="523" y="570" width="10" height="40" as="geometry" />
        </mxCell>
        <mxCell id="PyDRByAI_ssvU1MrfMtV-385" value="" style="rounded=0;whiteSpace=wrap;html=1;" vertex="1" parent="1">
          <mxGeometry x="533" y="570" width="10" height="40" as="geometry" />
        </mxCell>
        <mxCell id="PyDRByAI_ssvU1MrfMtV-386" value="" style="rounded=0;whiteSpace=wrap;html=1;" vertex="1" parent="1">
          <mxGeometry x="543" y="570" width="10" height="40" as="geometry" />
        </mxCell>
        <mxCell id="PyDRByAI_ssvU1MrfMtV-387" value="" style="rounded=0;whiteSpace=wrap;html=1;" vertex="1" parent="1">
          <mxGeometry x="553" y="570" width="10" height="40" as="geometry" />
        </mxCell>
        <mxCell id="PyDRByAI_ssvU1MrfMtV-388" value="" style="rounded=0;whiteSpace=wrap;html=1;" vertex="1" parent="1">
          <mxGeometry x="563" y="570" width="10" height="40" as="geometry" />
        </mxCell>
        <mxCell id="PyDRByAI_ssvU1MrfMtV-389" value="" style="rounded=0;whiteSpace=wrap;html=1;" vertex="1" parent="1">
          <mxGeometry x="573" y="570" width="10" height="40" as="geometry" />
        </mxCell>
        <mxCell id="PyDRByAI_ssvU1MrfMtV-390" value="" style="rounded=0;whiteSpace=wrap;html=1;" vertex="1" parent="1">
          <mxGeometry x="583" y="570" width="10" height="40" as="geometry" />
        </mxCell>
        <mxCell id="PyDRByAI_ssvU1MrfMtV-391" value="" style="rounded=0;whiteSpace=wrap;html=1;" vertex="1" parent="1">
          <mxGeometry x="603" y="570" width="10" height="40" as="geometry" />
        </mxCell>
        <mxCell id="PyDRByAI_ssvU1MrfMtV-392" value="" style="rounded=0;whiteSpace=wrap;html=1;" vertex="1" parent="1">
          <mxGeometry x="613" y="570" width="10" height="40" as="geometry" />
        </mxCell>
        <mxCell id="PyDRByAI_ssvU1MrfMtV-393" value="" style="rounded=0;whiteSpace=wrap;html=1;" vertex="1" parent="1">
          <mxGeometry x="623" y="570" width="10" height="40" as="geometry" />
        </mxCell>
        <mxCell id="PyDRByAI_ssvU1MrfMtV-394" value="" style="rounded=0;whiteSpace=wrap;html=1;" vertex="1" parent="1">
          <mxGeometry x="633" y="570" width="10" height="40" as="geometry" />
        </mxCell>
        <mxCell id="PyDRByAI_ssvU1MrfMtV-395" value="" style="rounded=0;whiteSpace=wrap;html=1;" vertex="1" parent="1">
          <mxGeometry x="643" y="570" width="10" height="40" as="geometry" />
        </mxCell>
        <mxCell id="PyDRByAI_ssvU1MrfMtV-396" value="" style="rounded=0;whiteSpace=wrap;html=1;" vertex="1" parent="1">
          <mxGeometry x="653" y="570" width="10" height="40" as="geometry" />
        </mxCell>
        <mxCell id="PyDRByAI_ssvU1MrfMtV-397" value="" style="rounded=0;whiteSpace=wrap;html=1;" vertex="1" parent="1">
          <mxGeometry x="663" y="570" width="10" height="40" as="geometry" />
        </mxCell>
        <mxCell id="PyDRByAI_ssvU1MrfMtV-398" value="" style="rounded=0;whiteSpace=wrap;html=1;" vertex="1" parent="1">
          <mxGeometry x="673" y="570" width="10" height="40" as="geometry" />
        </mxCell>
        <mxCell id="PyDRByAI_ssvU1MrfMtV-399" value="" style="rounded=0;whiteSpace=wrap;html=1;" vertex="1" parent="1">
          <mxGeometry x="693" y="570" width="10" height="40" as="geometry" />
        </mxCell>
        <mxCell id="PyDRByAI_ssvU1MrfMtV-400" value="" style="rounded=0;whiteSpace=wrap;html=1;" vertex="1" parent="1">
          <mxGeometry x="703" y="570" width="10" height="40" as="geometry" />
        </mxCell>
        <mxCell id="PyDRByAI_ssvU1MrfMtV-401" value="" style="rounded=0;whiteSpace=wrap;html=1;" vertex="1" parent="1">
          <mxGeometry x="713" y="570" width="10" height="40" as="geometry" />
        </mxCell>
        <mxCell id="PyDRByAI_ssvU1MrfMtV-402" value="" style="rounded=0;whiteSpace=wrap;html=1;" vertex="1" parent="1">
          <mxGeometry x="723" y="570" width="10" height="40" as="geometry" />
        </mxCell>
        <mxCell id="PyDRByAI_ssvU1MrfMtV-403" value="" style="rounded=0;whiteSpace=wrap;html=1;fillColor=#dae8fc;strokeColor=#6c8ebf;" vertex="1" parent="1">
          <mxGeometry x="733" y="570" width="10" height="40" as="geometry" />
        </mxCell>
        <mxCell id="PyDRByAI_ssvU1MrfMtV-404" value="" style="rounded=0;whiteSpace=wrap;html=1;" vertex="1" parent="1">
          <mxGeometry x="743" y="570" width="10" height="40" as="geometry" />
        </mxCell>
        <mxCell id="PyDRByAI_ssvU1MrfMtV-405" value="" style="rounded=0;whiteSpace=wrap;html=1;fillColor=#dae8fc;strokeColor=#6c8ebf;" vertex="1" parent="1">
          <mxGeometry x="753" y="570" width="10" height="40" as="geometry" />
        </mxCell>
        <mxCell id="PyDRByAI_ssvU1MrfMtV-406" value="" style="rounded=0;whiteSpace=wrap;html=1;" vertex="1" parent="1">
          <mxGeometry x="763" y="570" width="10" height="40" as="geometry" />
        </mxCell>
        <mxCell id="PyDRByAI_ssvU1MrfMtV-408" value="Variables" style="rounded=1;whiteSpace=wrap;html=1;fillColor=#0050ef;fontColor=#ffffff;strokeColor=#001DBC;" vertex="1" parent="1">
          <mxGeometry x="19" y="20" width="120" height="60" as="geometry" />
        </mxCell>
        <mxCell id="PyDRByAI_ssvU1MrfMtV-409" value="Methods" style="rounded=1;whiteSpace=wrap;html=1;fillColor=#0050ef;fontColor=#ffffff;strokeColor=#001DBC;" vertex="1" parent="1">
          <mxGeometry x="850" y="20" width="120" height="60" as="geometry" />
        </mxCell>
        <mxCell id="PyDRByAI_ssvU1MrfMtV-410" value="f(x) = ax + b&lt;br&gt;&lt;br&gt;f(2) = 2a + b" style="text;html=1;strokeColor=none;fillColor=none;align=left;verticalAlign=middle;whiteSpace=wrap;rounded=0;" vertex="1" parent="1">
          <mxGeometry x="890" y="105" width="220" height="115" as="geometry" />
        </mxCell>
        <mxCell id="PyDRByAI_ssvU1MrfMtV-412" value="" style="rounded=0;whiteSpace=wrap;html=1;" vertex="1" parent="1">
          <mxGeometry x="1041" y="40" width="200" height="40" as="geometry" />
        </mxCell>
        <mxCell id="PyDRByAI_ssvU1MrfMtV-413" value="" style="rounded=0;whiteSpace=wrap;html=1;" vertex="1" parent="1">
          <mxGeometry x="1041" y="90" width="199" height="40" as="geometry" />
        </mxCell>
        <mxCell id="PyDRByAI_ssvU1MrfMtV-414" value="" style="rounded=0;whiteSpace=wrap;html=1;" vertex="1" parent="1">
          <mxGeometry x="1041" y="140" width="200" height="40" as="geometry" />
        </mxCell>
        <mxCell id="PyDRByAI_ssvU1MrfMtV-415" value="" style="rounded=0;whiteSpace=wrap;html=1;" vertex="1" parent="1">
          <mxGeometry x="1041" y="190" width="200" height="280" as="geometry" />
        </mxCell>
        <mxCell id="PyDRByAI_ssvU1MrfMtV-416" value="HEAP" style="text;html=1;strokeColor=none;fillColor=none;align=center;verticalAlign=middle;whiteSpace=wrap;rounded=0;" vertex="1" parent="1">
          <mxGeometry x="981" y="200" width="60" height="30" as="geometry" />
        </mxCell>
        <mxCell id="PyDRByAI_ssvU1MrfMtV-417" value="STACK" style="text;html=1;strokeColor=none;fillColor=none;align=center;verticalAlign=middle;whiteSpace=wrap;rounded=0;" vertex="1" parent="1">
          <mxGeometry x="981" y="440" width="60" height="30" as="geometry" />
        </mxCell>
        <mxCell id="PyDRByAI_ssvU1MrfMtV-418" value="DATA" style="text;html=1;strokeColor=none;fillColor=none;align=center;verticalAlign=middle;whiteSpace=wrap;rounded=0;" vertex="1" parent="1">
          <mxGeometry x="981" y="145" width="60" height="30" as="geometry" />
        </mxCell>
        <mxCell id="PyDRByAI_ssvU1MrfMtV-419" value="BSS" style="text;html=1;strokeColor=none;fillColor=none;align=center;verticalAlign=middle;whiteSpace=wrap;rounded=0;" vertex="1" parent="1">
          <mxGeometry x="981" y="95" width="60" height="30" as="geometry" />
        </mxCell>
        <mxCell id="PyDRByAI_ssvU1MrfMtV-420" value="CODE" style="text;html=1;strokeColor=none;fillColor=none;align=center;verticalAlign=middle;whiteSpace=wrap;rounded=0;" vertex="1" parent="1">
          <mxGeometry x="981" y="45" width="60" height="30" as="geometry" />
        </mxCell>
        <mxCell id="PyDRByAI_ssvU1MrfMtV-422" value="" style="rounded=0;whiteSpace=wrap;html=1;" vertex="1" parent="1">
          <mxGeometry x="1081" y="400" width="120" height="60" as="geometry" />
        </mxCell>
        <mxCell id="PyDRByAI_ssvU1MrfMtV-423" value="Main()" style="text;html=1;strokeColor=#2D7600;fillColor=#60a917;align=center;verticalAlign=middle;whiteSpace=wrap;rounded=0;fontColor=#ffffff;" vertex="1" parent="1">
          <mxGeometry x="1110" y="390" width="60" height="30" as="geometry" />
        </mxCell>
        <mxCell id="PyDRByAI_ssvU1MrfMtV-424" value="" style="rounded=0;whiteSpace=wrap;html=1;" vertex="1" parent="1">
          <mxGeometry x="1270" y="335" width="120" height="60" as="geometry" />
        </mxCell>
        <mxCell id="PyDRByAI_ssvU1MrfMtV-425" value="Sum()" style="text;html=1;strokeColor=#2D7600;fillColor=#60a917;align=center;verticalAlign=middle;whiteSpace=wrap;rounded=0;fontColor=#ffffff;" vertex="1" parent="1">
          <mxGeometry x="1299" y="325" width="60" height="30" as="geometry" />
        </mxCell>
      </root>
    </mxGraphModel>
  </diagram>
</mxfile>
